<svg width="31" height="32" viewBox="0 0 31 32" fill="none" xmlns="http://www.w3.org/2000/svg">
<path d="M21.1155 24.4703C19.943 25.1749 18.3838 25.0411 17.3492 24.0066L15.4178 22.0752L13.4864 24.0066C12.4623 25.0307 10.9066 25.1845 9.71803 24.4684C5.31531 21.827 6.61749 22.6078 4.11133 21.1044V24.5674C4.11133 24.928 4.30114 25.2632 4.61034 25.4488L14.8888 31.6163C15.215 31.8121 15.6204 31.8121 15.9466 31.6163L26.2258 25.4488C26.535 25.2633 26.7248 24.9279 26.7248 24.5674V21.1048C24.4135 22.4915 25.5159 21.8301 21.1155 24.4703Z" fill="#FF9500"/>
<path d="M27.151 11.5468C29.0511 9.64677 28.6357 10.0621 30.5358 8.16203C31.0077 7.69017 30.9102 6.89716 30.3378 6.55379L20.0587 0.386321C19.654 0.143555 19.1365 0.207279 18.8029 0.54092L15.4181 3.92573L12.0333 0.54092C11.6997 0.207279 11.1821 0.143555 10.7776 0.386321L0.498349 6.55386C-0.0727023 6.89624 -0.172382 7.68937 0.300343 8.16216C2.3432 10.2048 1.88143 9.743 3.68528 11.547L0.300282 14.9318C-0.170597 15.4027 -0.075042 16.196 0.498287 16.5401C5.25941 19.3968 4.1279 18.7179 10.7775 22.7077C11.182 22.9504 11.6996 22.8867 12.0332 22.5531L15.418 19.1683L18.8028 22.5531C19.1365 22.8867 19.654 22.9503 20.0586 22.7077C25.4908 19.4484 23.315 20.754 30.3378 16.5401C30.91 16.1968 31.0077 15.4038 30.5358 14.9318L27.151 11.5468ZM15.418 16.5156L7.13689 11.5468C10.252 9.6778 10.5395 9.50534 15.4181 6.57818C20.262 9.48447 20.6 9.68728 23.6993 11.5468L15.418 16.5156Z" fill="#FF9500"/>
</svg>
